<svg xmlns="http://www.w3.org/2000/svg" width="66" height="66" viewBox="0 0 66 66">
    <g fill="none" fill-rule="evenodd">
        <g>
            <g>
                <path fill="#FC9" fill-rule="nonzero" d="M55.467 22.4L64 12.267 40.853 0 32 10.027 23.147 0 0 12.267 8.533 22.613 0 32.96 9.067 38.4 8.533 38.4 8.533 51.093 32 63.467 55.467 51.093 55.467 38.4 55.04 38.4 64 32.96z" transform="translate(-266 -332) translate(267 333)"/>
                <path fill="#FFF" fill-rule="nonzero" d="M55.467 22.933L32 35.2l10.347 10.667L64 33.28l-8.533-10.347zm-46.934-.32L0 12.267 23.147 0l8.746 10.027-23.36 12.586z" opacity=".25" transform="translate(-266 -332) translate(267 333)"/>
                <path fill="#000064" fill-rule="nonzero" d="M31.893 10.56L8.533 23.147 32 35.2 55.467 22.933z" opacity=".25" transform="translate(-266 -332) translate(267 333)"/>
                <path fill="#000064" fill-rule="nonzero" d="M40.853 0l-8.96 10.027L55.467 22.4 64 12.16 40.853 0zM8.533 22.613L0 32.747l8.533 4.906v13.44L32 64V35.2h-.533l.533-.533L8.533 22.613z" opacity=".15" transform="translate(-266 -332) translate(267 333)"/>
                <path stroke="#2E4369" stroke-linecap="round" stroke-linejoin="round" stroke-width="2" d="M8.533 38.507L8.533 51.627 32 64 55.467 51.627 55.467 38.507" transform="translate(-266 -332) translate(267 333)"/>
                <path stroke="#2E4369" stroke-linecap="round" stroke-linejoin="round" stroke-width="2" d="M32 64L32 35.2 21.76 45.76 0 33.28 8.533 23.147 0 12.8 23.147 0.533 31.893 10.56 40.853 0.533 64 12.693 55.467 22.933 64 33.28 42.347 45.867 32 35.2" transform="translate(-266 -332) translate(267 333)"/>
                <path stroke="#2E4369" stroke-linecap="round" stroke-linejoin="round" stroke-width="2" d="M31.893 10.56L8.533 23.147 32 35.2 55.467 22.933z" transform="translate(-266 -332) translate(267 333)"/>
            </g>
        </g>
    </g>
</svg>
